<svg width="24" height="24" viewBox="0 0 24 24" fill="none" xmlns="http://www.w3.org/2000/svg">
<g id="basil:envelope-solid">
<path id="Vector" d="M7.28994 4.90802C10.424 4.63564 13.5758 4.63564 16.7099 4.90802L18.2209 5.03802C18.7054 5.08029 19.1714 5.24413 19.5757 5.51437C19.98 5.78462 20.3096 6.15253 20.5339 6.58402C20.5602 6.63726 20.5653 6.69842 20.5485 6.75531C20.5316 6.8122 20.4939 6.86066 20.4429 6.89102L14.1769 10.771C13.5175 11.1793 12.7588 11.3993 11.9832 11.4073C11.2076 11.4152 10.4446 11.2107 9.77694 10.816L3.46994 7.08802C3.42023 7.05991 3.38239 7.01473 3.36345 6.96085C3.34451 6.90697 3.34575 6.84805 3.36694 6.79502C3.57132 6.31048 3.90404 5.89089 4.32925 5.58146C4.75445 5.27202 5.25603 5.08447 5.77994 5.03902L7.28994 4.90802Z" fill="#DEE8E3"/>
<path id="Vector_2" d="M3.36205 8.76702C3.32632 8.74585 3.28584 8.73399 3.24434 8.73254C3.20283 8.73108 3.16163 8.74007 3.1245 8.75868C3.08737 8.7773 3.05551 8.80494 3.03185 8.83906C3.00818 8.87319 2.99347 8.91272 2.98905 8.95402C2.73549 11.4719 2.7973 14.0115 3.17305 16.514C3.27023 17.1551 3.58015 17.7448 4.05299 18.1885C4.52583 18.6321 5.13411 18.9038 5.78005 18.96L7.29005 19.091C10.4251 19.364 13.5771 19.364 16.7121 19.091L18.2221 18.961C18.8682 18.9045 19.4766 18.6322 19.9493 18.188C20.422 17.7438 20.7315 17.1535 20.8281 16.512C21.2147 13.9366 21.2688 11.3222 20.9891 8.73301C20.9842 8.69155 20.969 8.65198 20.9448 8.61797C20.9205 8.58396 20.8881 8.55661 20.8505 8.53846C20.8129 8.52031 20.7714 8.51194 20.7297 8.51414C20.688 8.51633 20.6475 8.52902 20.6121 8.55101L14.9671 12.045C14.075 12.5971 13.049 12.8946 12.0001 12.9053C10.9511 12.9161 9.91919 12.6397 9.01605 12.106L3.36205 8.76702Z" fill="#DEE8E3"/>
</g>
</svg>
