<svg width="24" height="24" viewBox="0 0 24 24" fill="none" xmlns="http://www.w3.org/2000/svg">
<g id="basil:upload-solid">
<path id="Vector" fill-rule="evenodd" clip-rule="evenodd" d="M5 16.25C5.19891 16.25 5.38968 16.329 5.53033 16.4697C5.67098 16.6103 5.75 16.8011 5.75 17V19C5.75 19.138 5.862 19.25 6 19.25H18C18.0663 19.25 18.1299 19.2237 18.1768 19.1768C18.2237 19.1299 18.25 19.0663 18.25 19V17C18.25 16.8011 18.329 16.6103 18.4697 16.4697C18.6103 16.329 18.8011 16.25 19 16.25C19.1989 16.25 19.3897 16.329 19.5303 16.4697C19.671 16.6103 19.75 16.8011 19.75 17V19C19.75 19.4641 19.5656 19.9092 19.2374 20.2374C18.9092 20.5656 18.4641 20.75 18 20.75H6C5.53587 20.75 5.09075 20.5656 4.76256 20.2374C4.43437 19.9092 4.25 19.4641 4.25 19V17C4.25 16.8011 4.32902 16.6103 4.46967 16.4697C4.61032 16.329 4.80109 16.25 5 16.25ZM10.738 16.127C10.4897 16.1277 10.2502 16.035 10.067 15.8674C9.88382 15.6997 9.77032 15.4694 9.749 15.222C9.59709 13.4695 9.57036 11.7083 9.669 9.95199C9.42186 9.93818 9.17485 9.92218 8.928 9.904L7.438 9.795C7.30678 9.78538 7.1803 9.74186 7.07094 9.6687C6.96158 9.59553 6.87309 9.49523 6.81413 9.37761C6.75516 9.25998 6.72775 9.12907 6.73456 8.99767C6.74138 8.86627 6.78219 8.73889 6.853 8.628C7.91575 6.96655 9.28392 5.52169 10.885 4.37L11.482 3.941C11.6331 3.83286 11.8142 3.77472 12 3.77472C12.1858 3.77472 12.3669 3.83286 12.518 3.941L13.115 4.371C14.716 5.52239 16.0841 6.9669 17.147 8.628C17.2178 8.73889 17.2586 8.86627 17.2654 8.99767C17.2723 9.12907 17.2448 9.25998 17.1859 9.37761C17.1269 9.49523 17.0384 9.59553 16.9291 9.6687C16.8197 9.74186 16.6932 9.78538 16.562 9.795L15.072 9.904C14.8253 9.922 14.5787 9.93766 14.332 9.951C14.432 11.708 14.404 13.469 14.25 15.221C14.2289 15.4684 14.1157 15.6988 13.9327 15.8667C13.7497 16.0345 13.5103 16.1274 13.262 16.127H10.738Z" fill="#DEE8E3"/>
</g>
</svg>
