<svg width="24" height="24" viewBox="0 0 24 24" fill="none" xmlns="http://www.w3.org/2000/svg">
<g id="basil:home-solid">
<path id="Vector" d="M13.796 4.13599C13.5629 3.89526 13.2838 3.70386 12.9753 3.57314C12.6667 3.44242 12.3351 3.37506 12 3.37506C11.6649 3.37506 11.3333 3.44242 11.0247 3.57314C10.7162 3.70386 10.4371 3.89526 10.204 4.13599L5.40499 9.09199C5.12999 9.37599 4.94499 9.73599 4.87299 10.126C4.29111 13.3042 4.24818 16.5576 4.74599 19.75L4.92199 20.88C4.97799 21.237 5.28599 21.5 5.64699 21.5H8.99999C9.1326 21.5 9.25978 21.4473 9.35354 21.3535C9.44731 21.2598 9.49999 21.1326 9.49999 21V14H14.5V21C14.5 21.1326 14.5527 21.2598 14.6464 21.3535C14.7402 21.4473 14.8674 21.5 15 21.5H18.353C18.5279 21.5005 18.6973 21.4383 18.8302 21.3245C18.963 21.2107 19.0506 21.0529 19.077 20.88L19.254 19.75C19.7518 16.5576 19.7089 13.3042 19.127 10.126C19.0557 9.73612 18.8702 9.37623 18.594 9.09199L13.796 4.13599Z" fill="#DEE8E3"/>
</g>
</svg>
